<?xml version="1.0" encoding="utf-8"?>
<!-- Generated by IcoMoon.io -->
<!DOCTYPE svg PUBLIC "-//W3C//DTD SVG 1.1//EN" "http://www.w3.org/Graphics/SVG/1.1/DTD/svg11.dtd">
<svg version="1.1" xmlns="http://www.w3.org/2000/svg" xmlns:xlink="http://www.w3.org/1999/xlink" width="512" height="512" viewBox="0 0 512 512">
<g id="icomoon-ignore">
	<line stroke-width="1" x1="16" y1="0" x2="16" y2="512" stroke="#449FDB" opacity="0.3"></line>
	<line stroke-width="1" x1="32" y1="0" x2="32" y2="512" stroke="#449FDB" opacity="1"></line>
	<line stroke-width="1" x1="48" y1="0" x2="48" y2="512" stroke="#449FDB" opacity="0.3"></line>
	<line stroke-width="1" x1="64" y1="0" x2="64" y2="512" stroke="#449FDB" opacity="1"></line>
	<line stroke-width="1" x1="80" y1="0" x2="80" y2="512" stroke="#449FDB" opacity="0.3"></line>
	<line stroke-width="1" x1="96" y1="0" x2="96" y2="512" stroke="#449FDB" opacity="1"></line>
	<line stroke-width="1" x1="112" y1="0" x2="112" y2="512" stroke="#449FDB" opacity="0.3"></line>
	<line stroke-width="1" x1="128" y1="0" x2="128" y2="512" stroke="#449FDB" opacity="1"></line>
	<line stroke-width="1" x1="144" y1="0" x2="144" y2="512" stroke="#449FDB" opacity="0.3"></line>
	<line stroke-width="1" x1="160" y1="0" x2="160" y2="512" stroke="#449FDB" opacity="1"></line>
	<line stroke-width="1" x1="176" y1="0" x2="176" y2="512" stroke="#449FDB" opacity="0.3"></line>
	<line stroke-width="1" x1="192" y1="0" x2="192" y2="512" stroke="#449FDB" opacity="1"></line>
	<line stroke-width="1" x1="208" y1="0" x2="208" y2="512" stroke="#449FDB" opacity="0.3"></line>
	<line stroke-width="1" x1="224" y1="0" x2="224" y2="512" stroke="#449FDB" opacity="1"></line>
	<line stroke-width="1" x1="240" y1="0" x2="240" y2="512" stroke="#449FDB" opacity="0.3"></line>
	<line stroke-width="1" x1="256" y1="0" x2="256" y2="512" stroke="#449FDB" opacity="1"></line>
	<line stroke-width="1" x1="272" y1="0" x2="272" y2="512" stroke="#449FDB" opacity="0.3"></line>
	<line stroke-width="1" x1="288" y1="0" x2="288" y2="512" stroke="#449FDB" opacity="1"></line>
	<line stroke-width="1" x1="304" y1="0" x2="304" y2="512" stroke="#449FDB" opacity="0.3"></line>
	<line stroke-width="1" x1="320" y1="0" x2="320" y2="512" stroke="#449FDB" opacity="1"></line>
	<line stroke-width="1" x1="336" y1="0" x2="336" y2="512" stroke="#449FDB" opacity="0.3"></line>
	<line stroke-width="1" x1="352" y1="0" x2="352" y2="512" stroke="#449FDB" opacity="1"></line>
	<line stroke-width="1" x1="368" y1="0" x2="368" y2="512" stroke="#449FDB" opacity="0.3"></line>
	<line stroke-width="1" x1="384" y1="0" x2="384" y2="512" stroke="#449FDB" opacity="1"></line>
	<line stroke-width="1" x1="400" y1="0" x2="400" y2="512" stroke="#449FDB" opacity="0.3"></line>
	<line stroke-width="1" x1="416" y1="0" x2="416" y2="512" stroke="#449FDB" opacity="1"></line>
	<line stroke-width="1" x1="432" y1="0" x2="432" y2="512" stroke="#449FDB" opacity="0.3"></line>
	<line stroke-width="1" x1="448" y1="0" x2="448" y2="512" stroke="#449FDB" opacity="1"></line>
	<line stroke-width="1" x1="464" y1="0" x2="464" y2="512" stroke="#449FDB" opacity="0.3"></line>
	<line stroke-width="1" x1="480" y1="0" x2="480" y2="512" stroke="#449FDB" opacity="1"></line>
	<line stroke-width="1" x1="496" y1="0" x2="496" y2="512" stroke="#449FDB" opacity="0.3"></line>
	<line stroke-width="1" x1="0" y1="16" x2="512" y2="16" stroke="#449FDB" opacity="0.3"></line>
	<line stroke-width="1" x1="0" y1="32" x2="512" y2="32" stroke="#449FDB" opacity="1"></line>
	<line stroke-width="1" x1="0" y1="48" x2="512" y2="48" stroke="#449FDB" opacity="0.3"></line>
	<line stroke-width="1" x1="0" y1="64" x2="512" y2="64" stroke="#449FDB" opacity="1"></line>
	<line stroke-width="1" x1="0" y1="80" x2="512" y2="80" stroke="#449FDB" opacity="0.3"></line>
	<line stroke-width="1" x1="0" y1="96" x2="512" y2="96" stroke="#449FDB" opacity="1"></line>
	<line stroke-width="1" x1="0" y1="112" x2="512" y2="112" stroke="#449FDB" opacity="0.3"></line>
	<line stroke-width="1" x1="0" y1="128" x2="512" y2="128" stroke="#449FDB" opacity="1"></line>
	<line stroke-width="1" x1="0" y1="144" x2="512" y2="144" stroke="#449FDB" opacity="0.3"></line>
	<line stroke-width="1" x1="0" y1="160" x2="512" y2="160" stroke="#449FDB" opacity="1"></line>
	<line stroke-width="1" x1="0" y1="176" x2="512" y2="176" stroke="#449FDB" opacity="0.3"></line>
	<line stroke-width="1" x1="0" y1="192" x2="512" y2="192" stroke="#449FDB" opacity="1"></line>
	<line stroke-width="1" x1="0" y1="208" x2="512" y2="208" stroke="#449FDB" opacity="0.3"></line>
	<line stroke-width="1" x1="0" y1="224" x2="512" y2="224" stroke="#449FDB" opacity="1"></line>
	<line stroke-width="1" x1="0" y1="240" x2="512" y2="240" stroke="#449FDB" opacity="0.3"></line>
	<line stroke-width="1" x1="0" y1="256" x2="512" y2="256" stroke="#449FDB" opacity="1"></line>
	<line stroke-width="1" x1="0" y1="272" x2="512" y2="272" stroke="#449FDB" opacity="0.3"></line>
	<line stroke-width="1" x1="0" y1="288" x2="512" y2="288" stroke="#449FDB" opacity="1"></line>
	<line stroke-width="1" x1="0" y1="304" x2="512" y2="304" stroke="#449FDB" opacity="0.3"></line>
	<line stroke-width="1" x1="0" y1="320" x2="512" y2="320" stroke="#449FDB" opacity="1"></line>
	<line stroke-width="1" x1="0" y1="336" x2="512" y2="336" stroke="#449FDB" opacity="0.3"></line>
	<line stroke-width="1" x1="0" y1="352" x2="512" y2="352" stroke="#449FDB" opacity="1"></line>
	<line stroke-width="1" x1="0" y1="368" x2="512" y2="368" stroke="#449FDB" opacity="0.3"></line>
	<line stroke-width="1" x1="0" y1="384" x2="512" y2="384" stroke="#449FDB" opacity="1"></line>
	<line stroke-width="1" x1="0" y1="400" x2="512" y2="400" stroke="#449FDB" opacity="0.3"></line>
	<line stroke-width="1" x1="0" y1="416" x2="512" y2="416" stroke="#449FDB" opacity="1"></line>
	<line stroke-width="1" x1="0" y1="432" x2="512" y2="432" stroke="#449FDB" opacity="0.3"></line>
	<line stroke-width="1" x1="0" y1="448" x2="512" y2="448" stroke="#449FDB" opacity="1"></line>
	<line stroke-width="1" x1="0" y1="464" x2="512" y2="464" stroke="#449FDB" opacity="0.3"></line>
	<line stroke-width="1" x1="0" y1="480" x2="512" y2="480" stroke="#449FDB" opacity="1"></line>
	<line stroke-width="1" x1="0" y1="496" x2="512" y2="496" stroke="#449FDB" opacity="0.3"></line>
</g>
<path d="M256 415.946c-9.577 0-19.154-4.958-29.071-14.875-3.905-3.905-3.905-10.237 0-14.143 3.905-3.904 10.237-3.904 14.143 0 6.103 6.105 10.986 9.072 14.928 9.072 3.941 0 8.825-2.967 14.929-9.071 3.906-3.904 10.236-3.904 14.143 0 3.905 3.905 3.905 10.237 0 14.143-9.918 9.916-19.495 14.874-29.072 14.874zM0 262.746c0 24.946 2.133 47.561 6.4 67.841s10.267 37.87 18 52.766c7.733 14.896 17.511 27.952 29.333 39.17s24.666 20.46 38.533 27.729c13.867 7.268 29.733 13.148 47.6 17.633 17.866 4.487 36.044 7.628 54.533 9.423s38.845 2.692 61.067 2.692c22.222 0 42.621-0.895 61.199-2.69s36.801-4.936 54.666-9.423c17.867-4.487 33.779-10.365 47.734-17.633 13.955-7.269 26.889-16.513 38.799-27.729 11.912-11.218 21.735-24.274 29.467-39.17 7.735-14.897 13.78-32.487 18.135-52.766 4.355-20.28 6.533-42.894 6.533-67.84 0-44.69-13.868-83.186-41.6-115.491 1.6-4.308 2.977-9.243 4.133-14.807 1.154-5.564 2.266-13.416 3.332-23.556 1.069-10.141 0.668-21.852-1.199-35.132-1.867-13.282-5.377-26.832-10.533-40.651l-4-0.809c-2.666-0.538-7.021-0.359-13.066 0.54-6.043 0.897-13.111 2.511-21.199 4.845-8.088 2.332-18.533 6.954-31.334 13.864-12.799 6.909-26.31 15.659-40.533 26.248-24.178-7.359-57.51-15.058-100-15.058-42.488 0-75.911 7.698-100.265 15.057-14.223-10.59-27.778-19.294-40.667-26.114s-23.201-11.487-30.934-13.999c-7.734-2.512-14.889-4.128-21.467-4.845s-10.801-0.943-12.667-0.673c-1.866 0.269-3.244 0.583-4.133 0.942-5.157 13.82-8.712 27.37-10.668 40.652-1.955 13.28-2.4 24.946-1.333 34.996s2.222 17.949 3.467 23.691c1.245 5.743 2.667 10.679 4.267 14.807-27.733 32.125-41.6 70.621-41.6 115.49zM68.268 319.702c0-29.011 10.666-55.319 32-78.928 6.4-7.203 13.823-12.656 22.267-16.356 8.445-3.701 18.044-5.803 28.8-6.303s21.022-0.4 30.8 0.3c9.778 0.701 21.867 1.651 36.267 2.851 14.399 1.202 26.844 1.801 37.333 1.801 10.488 0 22.934-0.6 37.332-1.801 14.403-1.2 26.491-2.15 36.268-2.851 9.78-0.7 20.045-0.8 30.801-0.3 10.756 0.501 20.401 2.602 28.934 6.303 8.533 3.7 16 9.153 22.4 16.356 21.332 23.609 32 49.917 32 78.928 0 17.006-1.777 32.162-5.334 45.467-3.555 13.306-8.045 24.458-13.467 33.461s-13.024 16.609-22.799 22.81c-9.779 6.203-19.246 11.005-28.4 14.405-9.156 3.4-20.979 6.052-35.467 7.953-14.491 1.898-27.467 3.051-38.936 3.45-11.467 0.4-25.91 0.6-43.332 0.6s-31.822-0.201-43.2-0.6c-11.378-0.399-24.311-1.552-38.8-3.45-14.489-1.901-26.311-4.552-35.467-7.953s-18.622-8.202-28.4-14.405c-9.778-6.202-17.378-13.806-22.8-22.81-5.423-9.003-9.912-20.155-13.467-33.461-3.555-13.305-5.333-28.461-5.333-45.467zM128 304.002c0-26.51 14.327-48 32-48s32 21.49 32 48c0 26.51-14.327 48-32 48s-32-21.49-32-48zM320 304.002c0-26.51 14.327-48 32-48s32 21.49 32 48c0 26.51-14.327 48-32 48s-32-21.49-32-48z"></path>
</svg>
